<?xml version="1.0" encoding="iso-8859-1"?>
<!-- Generator: Adobe Illustrator 19.0.0, SVG Export Plug-In . SVG Version: 6.00 Build 0)  -->
<svg version="1.1" id="Capa_1" xmlns="http://www.w3.org/2000/svg" xmlns:xlink="http://www.w3.org/1999/xlink" x="0px" y="0px"
	 viewBox="0 0 512 512" style="enable-background:new 0 0 512 512;" xml:space="preserve">
<g>
	<g>
		<path d="M256,0C138.236,0,50,195.053,50,305.159C50,419.212,142.411,512,256,512s206-92.788,206-206.841
			C462,194.877,373.67,0,256,0z M320.998,129.318c-9.564,5.522-21.794,2.245-27.316-7.319c-5.522-9.564-2.245-21.794,7.319-27.316
			c9.564-5.522,21.794-2.245,27.316,7.319C333.839,111.566,330.563,123.796,320.998,129.318z M360.998,199.318
			c-9.564,5.522-21.794,2.245-27.316-7.319c-5.522-9.564-2.245-21.794,7.319-27.316c9.564-5.522,21.794-2.245,27.316,7.319
			C373.839,181.566,370.563,193.796,360.998,199.318z"/>
	</g>
</g>
<g>
</g>
<g>
</g>
<g>
</g>
<g>
</g>
<g>
</g>
<g>
</g>
<g>
</g>
<g>
</g>
<g>
</g>
<g>
</g>
<g>
</g>
<g>
</g>
<g>
</g>
<g>
</g>
<g>
</g>
</svg>
