<svg id="Capa_1" enable-background="new 0 0 511.807 511.807" height="512" viewBox="0 0 511.807 511.807" width="512" xmlns="http://www.w3.org/2000/svg"><g><path d="m496.066.01c-41.498 1.577-80.037 6.85-115.319 15.736l-7.14 25.454c-.785 3.497-11.826 55.328 14.836 81.991 27.22 27.22 81.632 14.928 82.173 14.794l24.989-5.956c9.061-35.591 14.426-74.517 16.02-116.461.329-8.675-6.773-15.872-15.559-15.558zm-67.319 97.877c-8.284 0-15-6.716-15-15s6.716-15 15-15 15 6.716 15 15-6.716 15-15 15z"/><path d="m442.156 170.941c-23.337 0-53.403-5.013-74.926-26.536-39.449-39.449-23.432-107.597-22.731-110.479.104-.427-.062.189 2.279-8.159-65.505 22.323-120.91 60.027-161.193 115.28-46.512 63.798-67.354 143.811-68.929 224.002h-101.501c-9.9 0-17.635 9.631-14.124 20.062 19.692 58.648 66.576 106.031 126.12 125.913 9.717 3.248 19.778-4.016 19.75-14.269l-.276-101.79c80.02-1.578 160.033-22.309 223.961-68.916 55.248-40.279 92.861-95.611 115.158-160.829-8.44 2.012-22.225 5.721-43.588 5.721z"/><path d="m77.134 270.42h20.236c15.544-72.3 48.16-138.835 102.265-190.989-17.327-1.721-40.254 1.111-65.589 17.633-18.536 12.09-35.703 41.408-52.48 89.632-11.759 33.801-18.76 64.096-19.052 65.369-2.155 9.387 4.987 18.355 14.62 18.355z"/><path d="m319.71 389.308 25.894 25.894c5.121 5.121 13.152 5.844 19.103 1.756 2.205-1.516 54.084-37.661 62.197-85.953.833-4.956 1.172-9.848 1.055-14.672-30.588 30.599-66.778 54.967-108.249 72.975z"/></g></svg>