<svg id="u" viewBox="0 0 48 48" xmlns="http://www.w3.org/2000/svg"><path d="m20.49 10.29c-1.79.31-3.25.85-4.16 1.5-.91.64-1.34 1.43-1.34 2.21v3c0 .54.21 1.09.65 1.59l-1.43 1.78c-.11.14-.19.31-.21.49l-2 15c-.01.11-.01.22.01.33l1 5c.04.19.13.37.27.51 0 0 2.12 2.29 10.71 2.29s10.71-2.29 10.71-2.29c.14-.14.23-.32.27-.51l1-5c.02-.11.03-.22.01-.33l-2-15c-.02-.18-.1-.35-.21-.49l-1.43-1.78c.44-.5.65-1.05.65-1.59v-3c0-.78-.43-1.56-1.34-2.21s-2.37-1.19-4.16-1.5l-1.03-5.47c-.09-.47-.5-.82-.98-.82h-3c-.48 0-.89.34-.98.82l-1.03 5.47zm12.81 29.09c-1.65.62-4.98 1.62-9.3 1.62s-7.66-1-9.3-1.62c.12.61.21 1.06.21 1.06.65.41 3 1.56 9.09 1.56s8.45-1.15 9.09-1.56zm-2.58-19.63c-1.59.75-4.01 1.25-6.72 1.25s-5.13-.5-6.72-1.25l-1.33 1.66-1.94 14.56s.09.45.21 1.06c.08.02.15.04.22.08 0 0 3.82 1.89 9.55 1.89s9.55-1.89 9.55-1.89c.07-.04.15-.06.22-.08l.21-1.06-1.94-14.56-1.33-1.66zm.28 15.25c.55 0 1-.45 1-1v-6c0-.55-.45-1-1-1h-2.17c-.15-.5-.44-1.11-.98-1.65-.71-.71-1.87-1.35-3.84-1.35s-3.13.64-3.84 1.35c-.54.55-.83 1.16-.98 1.65h-2.17c-.55 0-1 .45-1 1v6c0 .55.45 1 1 1h14zm-1-2h-12v-4h2c.55 0 1-.45 1-1 0 0 .02-.68.57-1.24.44-.44 1.2-.76 2.43-.76s1.99.32 2.43.76c.55.55.57 1.24.57 1.24 0 .55.45 1 1 1h2zm-3-15.21c-.63.09-1.3.16-2 .19v1c.7-.03 1.37-.1 2-.2zm-6 0v.99c.63.1 1.3.17 2 .2v-1c-.7-.03-1.37-.1-2-.19zm10-1.17c-.56.29-1.23.55-2 .76v.92c.37-.12.7-.26 1-.41.36-.18.65-.38.84-.6.08-.09.16-.18.16-.28zm-14 0v.39c0 .1.07.19.16.28.19.22.49.41.84.6.3.15.63.29 1 .41v-.92c-.77-.21-1.44-.47-2-.76zm3.09-4.21c-1.09.24-2 .59-2.6 1.02-.27.19-.5.35-.5.58 0 .1.07.19.16.28.19.22.49.41.84.6 1.35.69 3.54 1.12 6 1.12s4.65-.43 6-1.12c.36-.18.65-.38.84-.6.08-.09.16-.18.16-.28 0-.23-.23-.39-.5-.58-.6-.43-1.5-.77-2.6-1.02l.08.41c.06.32-.04.66-.27.89 0 0-1.22 1.29-3.71 1.29s-3.71-1.29-3.71-1.29c-.23-.23-.34-.57-.27-.89zm3.91.6c-.89 0-1.53-.24-1.9-.45 0 0 1.23-6.55 1.23-6.55h1.34l1.23 6.55c-.37.2-1.01.45-1.9.45z" fill-rule="evenodd"/></svg>