<svg version="1.1" id="Capa_1" xmlns="http://www.w3.org/2000/svg" xmlns:xlink="http://www.w3.org/1999/xlink" x="0px" y="0px" viewBox="0 0 512 512" style="enable-background:new 0 0 512 512;" xml:space="preserve">
<g>
	<path style="fill:none;stroke:#000000;stroke-width:30;stroke-miterlimit:10;" d="M225.998,150c0-24.853-20.147-45-45-45&#10;&#9;&#9;c-24.873,0-45-20.127-45-45c0-24.853-20.147-45-45-45c-24.853,0-45,20.147-45,45c0,74.619,60.381,135,135,135&#10;&#9;&#9;C205.851,195,225.998,174.853,225.998,150z"/>
	<path style="fill:none;stroke:#000000;stroke-width:30;stroke-miterlimit:10;" d="M135.984,497&#10;&#9;&#9;c48.59,0,90.014-49.158,90.014-106.735c0-74.566-43.303-138.265-90.007-138.265s-89.993,63.699-89.993,138.265&#10;&#9;&#9;C45.998,447.835,87.394,497,135.984,497z"/>
	<path style="fill:none;stroke:#000000;stroke-width:30;stroke-miterlimit:10;" d="M135.991,252&#10;&#9;&#9;c-15.568,0-29.993,63.699-29.993,138.265c0,57.573,13.789,106.735,29.986,106.735s30.014-49.16,30.014-106.735&#10;&#9;&#9;C165.998,315.699,151.559,252,135.991,252z"/>
	<path style="fill:none;stroke:#000000;stroke-width:30;stroke-miterlimit:10;" d="M330.998,452&#10;&#9;&#9;c74.561,0,135.004-87.752,135.004-196S405.559,60,330.998,60c-24.853,0-45,20.147-45,45v302&#10;&#9;&#9;C285.998,431.853,306.145,452,330.998,452z"/>
	<path style="fill:none;stroke:#000000;stroke-width:30;stroke-miterlimit:10;" d="M285.998,316c0,16.569,13.431,30,30,30&#10;&#9;&#9;c16.569,0,30-13.431,30-30v-74.999c0-24.852,20.146-44.999,44.998-45l3.56,0c34.89-0.001,56.518-37.998,38.691-67.99"/>
</g>
<g>
</g>
<g>
</g>
<g>
</g>
<g>
</g>
<g>
</g>
<g>
</g>
<g>
</g>
<g>
</g>
<g>
</g>
<g>
</g>
<g>
</g>
<g>
</g>
<g>
</g>
<g>
</g>
<g>
</g>
</svg>