<svg id="Capa_1" enable-background="new 0 0 512 512" height="512" viewBox="0 0 512 512" width="512" xmlns="http://www.w3.org/2000/svg"><g><path d="m133.261 201.448c0 12.415 4.824 24.077 13.619 32.872l130.799 130.8c8.777 8.787 20.459 13.619 32.872 13.619 21.345 0 32.041-12.778 39.259-19.985l-196.553-196.555c-6.927 6.915-19.996 17.688-19.996 39.249z"/><path d="m498.37 144.429-130.8-130.799c-18.189-18.189-47.619-18.157-65.755 0l-126.709 126.72 196.554 196.554 126.709-126.72c18.128-18.106 18.221-47.535.001-65.755z"/><path d="m125.03 256.17c-.062-.062-.134-.134-.185-.196l-36.653 36.653c-6.052 6.053-6.002 15.847 0 21.85l109.331 109.331c6.003 6.003 15.798 6.052 21.85 0l36.653-36.653c-.062-.052-.134-.124-.196-.185z"/><circle cx="79.032" cy="371.158" r="15"/><circle cx="79.032" cy="432.964" r="15"/><circle cx="33.79" cy="478.21" r="15"/><circle cx="140.842" cy="432.967" r="15"/><circle cx="15" cy="402.063" r="15"/><circle cx="109.937" cy="497" r="15"/></g></svg>