<svg id="Capa_1" enable-background="new 0 0 512.122 512.122" height="512" viewBox="0 0 512.122 512.122" width="512" xmlns="http://www.w3.org/2000/svg"><g id="XMLID_690_"><path id="XMLID_694_" d="m85.802 117.423c-4.503-.775-44.671-6.91-68.044 16.461-23.37 23.372-17.237 63.541-16.461 68.044 1.079 6.256 5.979 11.156 12.234 12.234 1.657.285 8.139 1.296 16.837 1.296 14.946 0 36.433-2.984 51.207-17.758 23.371-23.37 17.237-63.54 16.461-68.043-1.079-6.255-5.978-11.154-12.234-12.234z"/><path id="XMLID_710_" d="m280.175 117.423c-6.256 1.079-11.155 5.979-12.234 12.234-.776 4.503-6.91 44.673 16.461 68.043 14.775 14.775 36.26 17.758 51.207 17.758 8.696 0 15.181-1.011 16.837-1.296 6.256-1.078 11.156-5.979 12.234-12.234.776-4.503 6.909-44.672-16.461-68.044-23.371-23.37-63.539-17.236-68.044-16.461z"/><path id="XMLID_711_" d="m231.947 203.318c-4.501-.774-44.671-6.91-68.044 16.461-23.37 23.372-17.237 63.541-16.461 68.044 1.079 6.256 5.979 11.156 12.234 12.234 1.657.285 8.139 1.296 16.837 1.296 14.946 0 36.433-2.984 51.207-17.758 23.371-23.37 17.237-63.54 16.461-68.043-1.079-6.256-5.979-11.155-12.234-12.234z"/><path id="XMLID_712_" d="m481.754 301.353c8.696 0 15.181-1.011 16.837-1.296 6.256-1.078 11.156-5.979 12.234-12.234.776-4.503 6.909-44.672-16.461-68.044-23.371-23.37-63.54-17.235-68.044-16.461-6.256 1.079-11.155 5.979-12.234 12.234-.776 4.503-6.91 44.673 16.461 68.043 14.776 14.776 36.26 17.758 51.207 17.758z"/><path id="XMLID_713_" d="m13.531 328.191c-6.256 1.078-11.156 5.979-12.234 12.234-.776 4.503-6.909 44.674 16.461 68.044 14.775 14.775 36.26 17.758 51.207 17.758 8.696 0 15.181-1.011 16.837-1.296 6.256-1.078 11.156-5.979 12.234-12.234.776-4.503 6.909-44.674-16.461-68.044-23.372-23.372-63.541-17.238-68.044-16.462z"/><path id="XMLID_714_" d="m352.446 328.191c-4.503-.774-44.672-6.908-68.043 16.462s-17.237 63.541-16.461 68.044c1.079 6.256 5.979 11.156 12.234 12.234 1.657.285 8.139 1.296 16.836 1.296 14.946 0 36.433-2.984 51.207-17.758 23.371-23.37 17.237-63.541 16.461-68.044-1.078-6.255-5.978-11.156-12.234-12.234z"/><path id="XMLID_715_" d="m159.676 414.086c-6.256 1.078-11.156 5.979-12.234 12.234-.776 4.503-6.909 44.674 16.461 68.044 14.775 14.775 36.26 17.758 51.207 17.758 8.696 0 15.181-1.011 16.837-1.296 6.256-1.078 11.156-5.979 12.234-12.234.776-4.503 6.909-44.674-16.461-68.044-23.374-23.373-63.541-17.239-68.044-16.462z"/><path id="XMLID_716_" d="m498.591 414.086c-4.503-.775-44.673-6.908-68.043 16.462s-17.237 63.541-16.461 68.044c1.079 6.256 5.979 11.156 12.234 12.234 1.657.285 8.139 1.296 16.837 1.296 14.946 0 36.433-2.984 51.207-17.758 23.371-23.37 17.237-63.541 16.461-68.044-1.08-6.256-5.98-11.156-12.235-12.234z"/><path id="XMLID_717_" d="m215.109 99.333c8.696 0 15.181-1.011 16.837-1.296 6.256-1.078 11.156-5.979 12.234-12.234.776-4.503 6.909-44.674-16.461-68.044-23.373-23.374-63.54-17.239-68.043-16.463-6.256 1.078-11.156 5.979-12.234 12.234-.776 4.503-6.909 44.674 16.461 68.044 14.775 14.776 36.26 17.759 51.206 17.759z"/><path id="XMLID_718_" d="m426.32 98.037c1.657.285 8.139 1.296 16.837 1.296 14.946 0 36.433-2.984 51.207-17.758 23.371-23.37 17.237-63.541 16.461-68.044-1.079-6.256-5.979-11.156-12.234-12.234-4.503-.775-44.673-6.908-68.043 16.462s-17.237 63.541-16.461 68.044c1.077 6.255 5.977 11.156 12.233 12.234z"/></g></svg>