<svg id="Capa_1" enable-background="new 0 0 511.942 511.942" height="512" viewBox="0 0 511.942 511.942" width="512" xmlns="http://www.w3.org/2000/svg"><g><path d="m0 357.616v106.18c0 20.017 16.384 35.05 34.93 35.05 3.29 0 6.62-.47 9.89-1.42l49.8-14.5v-144.44l-49.8-14.5c-22.385-6.518-44.82 10.209-44.82 33.63z"/><path d="m124.62 343.476h72.99v134.46h-72.99z"/><path d="m273.04 343.476h-45.43v134.46c82.249 0 76.981.025 80.37-.06v-162.33c-3.3 15.87-17.8 27.93-34.94 27.93z"/><path d="m133.73 60.256c-17.64-.11-31.96-14.49-31.96-32.16 0-8.28-6.72-15-15-15-8.29 0-15 6.72-15 15 0 11.77 3.28 22.78 8.98 32.16h-65.67c-8.28 0-15 6.72-15 15 0 8.29 6.72 15 15 15h55.3c-.24 1.64-.36 3.32-.36 5.03 0 98.45 80.09 178.55 178.54 178.55h25.3c9.41 0 18.23 3.69 24.83 10.4 4.8 4.88 7.97 10.91 9.29 17.46v-241.33c-4.252-.158 6.769-.11-174.25-.11zm62.71 111.1c-11.01 0-19.93-8.92-19.93-19.93s8.92-19.94 19.93-19.94 19.94 8.93 19.94 19.94-8.93 19.93-19.94 19.93z"/><path d="m337.98 475.056c.23-.03.46-.07.69-.11 80.777-13.756 145.036-73.948 165.94-150.45h-166.63z"/><path d="m338.67 63.536c-.23-.04-.46-.08-.69-.12v209.97l130.8-130.44c-31.697-41.033-77.675-70.038-130.11-79.41z"/><path d="m485.68 168.456-126.38 126.04h151.18c5.668-46.764-5.681-94.214-24.8-126.04z"/></g></svg>