<?xml version="1.0" encoding="iso-8859-1"?>
<!-- Generator: Adobe Illustrator 19.0.0, SVG Export Plug-In . SVG Version: 6.00 Build 0)  -->
<svg version="1.1" id="Capa_1" xmlns="http://www.w3.org/2000/svg" xmlns:xlink="http://www.w3.org/1999/xlink" x="0px" y="0px"
	 viewBox="0 0 512 512" style="enable-background:new 0 0 512 512;" xml:space="preserve">
<g>
	<g>
		<path d="M497,7.57h-36.065c-0.029-0.005-0.053-0.02-0.082-0.024c-0.143-0.018-0.267-0.104-0.412-0.119
			c-0.485-0.053-0.875-0.394-1.37-0.399C194.13,3.913,87.01,81.715,0.849,326.774c-1.816,5.171-0.674,11.001,2.988,15.073
			c3.688,4.098,9.269,5.904,14.59,4.644c45.293-3.12,82.68-24.639,104.506-42.144c29.077-23.306,38.335-41.03,47.271-58.169
			c9.142-17.525,17.893-34.221,51.299-60.009c-1.619,2.695-3.212,4.94-4.849,7.773c-12.349,21.431-21.475,40.283-28.711,59.341
			c-25.796,68.086-21.284,158.599-13.447,238.169c0.542,5.449,4.028,10.239,9.053,12.393c5.042,2.139,10.902,1.434,15.176-1.919
			c39.727-21.943,62.842-56.484,75.249-81.592c16.509-33.428,17.402-53.394,18.267-72.715c0.996-22.456,1.948-43.682,30.19-92.607
			s46.143-60.352,65.098-72.451c16.304-10.4,33.164-21.167,53.848-52.178c13.993-20.977,30.071-53.406,32.109-92.813H497
			c8.291,0,15-6.709,15-15S505.291,7.57,497,7.57z M127.46,254.323c-13.141,9.231-32.029,6.578-41.792-7.383
			c-9.469-13.48-6.283-32.205,7.383-41.763c13.523-9.482,32.205-6.282,41.763,7.354C144.306,226.081,140.995,244.831,127.46,254.323
			z M183.959,178.122c-13.461,9.456-32.217,6.3-41.777-7.354c-9.46-13.527-6.26-32.24,7.368-41.792
			c13.64-9.536,32.293-6.2,41.792,7.383C200.811,149.839,197.625,168.564,183.959,178.122z M257.685,126.5
			c-13.351,9.379-32.118,6.398-41.777-7.354c-9.538-13.638-6.205-32.279,7.368-41.792c13.647-9.541,32.288-6.208,41.792,7.383
			C274.536,98.217,271.351,116.943,257.685,126.5z M306.054,90.302c-9.003-14.827-4.033-31.453,8.145-39.988
			c13.564-9.507,32.285-6.196,41.792,7.354c0.002,0.002,0,0.004,0.002,0.005C337.16,68.634,320.576,79.441,306.054,90.302z"/>
	</g>
</g>
<g>
</g>
<g>
</g>
<g>
</g>
<g>
</g>
<g>
</g>
<g>
</g>
<g>
</g>
<g>
</g>
<g>
</g>
<g>
</g>
<g>
</g>
<g>
</g>
<g>
</g>
<g>
</g>
<g>
</g>
</svg>
