<svg id="Capa_1" enable-background="new 0 0 512.416 512.416" height="512" viewBox="0 0 512.416 512.416" width="512" xmlns="http://www.w3.org/2000/svg"><g><path d="m480.316 415.772h-106.46c15.698-12.853 29.076-28.47 39.297-46.058 14.715-25.32 22.542-54.179 22.635-83.456.122-38.243-12.944-75.711-36.791-105.503-3.283-4.103-5.114-9.14-5.155-14.184l-.115-14.396c-.271-33.739-27.941-61.189-61.682-61.189-5.175 0-9.574 3.871-10.232 9.003l-2.266 17.65c-1.845 14.375-14.166 25.215-28.658 25.215-15.872 0-28.833-12.913-28.893-28.785l-.371-100.459c-.02-5.48-3.153-10.248-8.175-12.441-5.023-2.195-10.649-1.253-14.682 2.458l-30.575 28.112c-7.116 6.543-14.151 13.622-20.91 21.039-2.79 3.062-2.569 7.806.493 10.596 3.06 2.788 7.804 2.569 10.595-.492 6.462-7.093 13.183-13.855 19.975-20.102l28.291-26.012.361 97.356c.09 24.112 19.78 43.729 43.893 43.729 22.016 0 40.732-16.468 43.536-38.305l1.718-13.384c23.641 2.081 42.391 21.976 42.584 46.131l.115 14.396c.068 8.396 3.066 16.719 8.443 23.437 22.029 27.521 33.614 60.746 33.501 96.083-.084 26.648-7.209 52.918-20.604 75.967-12.659 21.782-30.608 40.275-51.994 53.594h-27.15c11.773-7.086 22.199-16.5 30.51-27.884 2.443-3.346 1.711-8.038-1.635-10.48s-8.037-1.71-10.479 1.635c-17.082 23.395-44.557 37.104-73.492 36.721-23.268-.324-45.225-9.646-61.828-26.248-16.603-16.603-25.924-38.56-26.248-61.827-.62-44.469 32.003-83.001 75.884-89.628 2.074-.312 3.519.617 4.195 1.198.662.569 1.771 1.828 1.771 3.862v37.351c0 13.863 11.279 25.143 25.143 25.143 7.037 0 13.798-2.978 18.549-8.169l23.671-25.868c1.459-1.595 3.538-2.467 5.701-2.366 1.226.052 3.538.471 5.254 2.697 12.129 15.735 18.541 34.583 18.541 54.505 0 8.948-1.322 17.789-3.929 26.276-1.216 3.959 1.008 8.155 4.967 9.371 3.958 1.218 8.155-1.008 9.372-4.967 3.046-9.916 4.59-20.238 4.59-30.681 0-23.265-7.49-45.279-21.661-63.663-3.965-5.144-9.98-8.251-16.501-8.525-6.603-.293-12.942 2.355-17.4 7.226l-23.671 25.868c-1.917 2.095-4.644 3.296-7.482 3.296-5.593 0-10.143-4.55-10.143-10.143v-37.352c0-5.859-2.547-11.411-6.988-15.232-4.466-3.843-10.377-5.539-16.218-4.66-24.688 3.729-47.274 16.28-63.596 35.343-16.506 19.277-25.401 43.898-25.047 69.326.379 27.195 11.26 52.845 30.641 72.225 6.072 6.072 12.76 11.309 19.917 15.65h-26.502c-21.4-13.323-39.326-31.85-51.923-53.687-13.333-23.115-20.381-49.523-20.381-76.372v-6.647c0-1.941.038-3.879.075-5.817l.006-.345c.079-4.141-3.214-7.562-7.355-7.642-4.188-.063-7.562 3.215-7.642 7.356l-.007.344c-.039 2.033-.077 4.066-.077 6.104v6.647c0 29.476 7.742 58.477 22.388 83.867 10.182 17.65 23.547 33.312 39.258 46.191h-40.788c-4.142 0-7.5 3.357-7.5 7.5s3.358 7.5 7.5 7.5h357.201v14.582c0 10.743-8.74 19.483-19.483 19.483h-379.987c-10.743 0-19.483-8.74-19.483-19.483v-14.582h29.724c4.142 0 7.5-3.357 7.5-7.5s-3.358-7.5-7.5-7.5h-32.359c-6.818 0-12.365 5.547-12.365 12.365v17.217c0 19.015 15.469 34.483 34.483 34.483h32.449v11.166c0 11.808 9.606 21.413 21.413 21.413h270.29c11.807 0 21.413-9.605 21.413-21.413v-11.166h34.421c19.014 0 34.483-15.469 34.483-34.483v-17.217c.001-6.817-5.546-12.364-12.364-12.364zm-71.54 75.231c0 3.536-2.877 6.413-6.413 6.413h-270.29c-3.536 0-6.413-2.877-6.413-6.413v-11.166h283.116z"/><path d="m345.972 73.458c12.512 0 22.691-10.179 22.691-22.69v-27.238c0-12.512-10.179-22.69-22.691-22.69s-22.691 10.179-22.691 22.69v27.238c0 12.512 10.179 22.69 22.691 22.69zm-7.691-49.928c0-4.24 3.45-7.69 7.691-7.69s7.691 3.45 7.691 7.69v27.238c0 4.24-3.45 7.69-7.691 7.69s-7.691-3.45-7.691-7.69z"/><path d="m431.514 149.913c14.069 0 25.515-11.446 25.515-25.515v-32.3c0-14.068-11.446-25.515-25.515-25.515s-25.515 11.446-25.515 25.515v32.301c0 14.068 11.446 25.514 25.515 25.514zm-10.515-57.815c0-5.798 4.717-10.515 10.515-10.515s10.515 4.717 10.515 10.515v32.301c0 5.798-4.717 10.515-10.515 10.515s-10.515-4.717-10.515-10.515z"/><path d="m117.978 250.747c54.171 0 98.242-44.071 98.242-98.243 0-54.171-44.071-98.242-98.242-98.242-22.098 0-42.971 7.169-60.363 20.731-3.267 2.547-3.85 7.26-1.303 10.526 2.546 3.265 7.26 3.85 10.526 1.302 14.732-11.487 32.416-17.56 51.14-17.56 45.9 0 83.242 37.342 83.242 83.242s-37.342 83.243-83.242 83.243-83.243-37.343-83.243-83.243c0-15.211 4.14-30.092 11.973-43.034 2.145-3.543 1.01-8.154-2.533-10.299-3.544-2.146-8.154-1.012-10.3 2.533-9.25 15.284-14.14 32.851-14.14 50.8.001 54.173 44.072 98.244 98.243 98.244z"/><path d="m71.964 144.343c2.458 0 4.825.722 6.846 2.088 3.434 2.319 8.094 1.418 10.414-2.015 2.319-3.432 1.417-8.094-2.014-10.413-4.511-3.049-9.783-4.66-15.245-4.66-15.028 0-27.255 12.227-27.255 27.255s12.227 27.255 27.255 27.255c6.08 0 11.555-2.014 15.831-5.822.835-.745 1.63-1.563 2.36-2.434 2.663-3.174 2.249-7.904-.924-10.566-3.174-2.664-7.904-2.25-10.566.924-.266.317-.551.611-.847.875-1.529 1.361-3.443 2.023-5.854 2.023-6.757 0-12.255-5.497-12.255-12.255s5.496-12.255 12.254-12.255z"/><path d="m177.354 176.353v-58.915c0-4.143-3.358-7.5-7.5-7.5s-7.5 3.357-7.5 7.5v58.915c0 4.143 3.358 7.5 7.5 7.5s7.5-3.358 7.5-7.5z"/><path d="m134.84 179.105c1.098 2.779 3.802 4.748 6.972 4.748 4.142 0 7.5-3.357 7.5-7.5v-40.066c0-4.143-3.358-7.5-7.5-7.5-3.17 0-5.874 1.969-6.972 4.749-3.252-1.535-6.882-2.397-10.71-2.397-13.885 0-25.182 11.297-25.182 25.182 0 13.886 11.297 25.183 25.182 25.183 3.828-.002 7.457-.864 10.71-2.399zm-20.893-22.785c0-5.614 4.568-10.182 10.182-10.182s10.182 4.567 10.182 10.182-4.568 10.183-10.182 10.183c-5.614-.001-10.182-4.569-10.182-10.183z"/></g></svg>