<svg version="1.1" id="Capa_1" xmlns="http://www.w3.org/2000/svg" xmlns:xlink="http://www.w3.org/1999/xlink" x="0px" y="0px" viewBox="0 0 512.003 512.003" style="enable-background:new 0 0 512.003 512.003;" xml:space="preserve">
<g>
	<circle style="fill:none;stroke:#000000;stroke-width:30;stroke-miterlimit:10;" cx="313.636" cy="65.013" r="50"/>
	<polyline style="fill:none;stroke:#000000;stroke-width:30;stroke-miterlimit:10;" points="233.244,337.489 169.062,492.405 &#10;&#9;&#9;113.63,469.444 178.794,312.152 &#9;"/>
	<path style="fill:none;stroke:#000000;stroke-width:30;stroke-miterlimit:10;" d="M306.883,238.105l55.433,22.961&#10;&#9;&#9;c22.961,9.511,49.285-1.393,58.795-24.354l25.831-62.362l-55.433-22.961l-20.091,48.504l-221.731-91.844&#10;&#9;&#9;c-22.961-9.511-49.285,1.393-58.795,24.354l-25.831,62.362l55.433,22.961l20.091-48.504l55.433,22.961l-28.701,69.291&#10;&#9;&#9;c-9.511,22.961,1.393,49.285,24.354,58.795l110.865,45.922l-28.51,68.829l55.433,22.961l34.25-82.687&#10;&#9;&#9;c9.511-22.961-1.393-49.285-24.354-58.795l-55.433-22.961l45.922-110.866"/>
</g>
<g>
</g>
<g>
</g>
<g>
</g>
<g>
</g>
<g>
</g>
<g>
</g>
<g>
</g>
<g>
</g>
<g>
</g>
<g>
</g>
<g>
</g>
<g>
</g>
<g>
</g>
<g>
</g>
<g>
</g>
</svg>