<?xml version="1.0"?>
<svg xmlns="http://www.w3.org/2000/svg" data-name="Layer 1" id="Layer_1" viewBox="0 0 1000 1000"><title/><path d="M770.87,474.06a16,16,0,0,1-16-15.36C749.15,313.75,637.19,200.21,500,200.21S250.85,313.75,245.11,458.7a16,16,0,1,1-32-1.27c3.08-77.81,34.18-150.48,87.59-204.65C354.5,198.25,425.27,168.21,500,168.21s145.49,30,199.27,84.57c53.4,54.17,84.5,126.85,87.58,204.65a16,16,0,0,1-15.35,16.62Z"/><path d="M393.27,916A16,16,0,0,1,382,911.31L268.3,797.66a16,16,0,0,1,0-22.62l57.51-57.52a16,16,0,0,1,22.63,0L462.09,831.18a16,16,0,0,1,0,22.62l-57.51,57.51A16,16,0,0,1,393.27,916Zm-91-129.65,91,91,34.88-34.88-91-91Z"/><path d="M391,857.67A16,16,0,0,1,379.64,853l-15.26-15.27A16,16,0,0,1,387,815.09l15.26,15.26A16,16,0,0,1,391,857.67Z"/><path d="M434,841.72a16,16,0,0,1-11.31-27.32L522.93,714.16a191,191,0,0,0,22.28-26.79,540.8,540.8,0,0,0,52.48-95.89H581.56a112.94,112.94,0,0,1-41,67.13l-.46.35c-17.53,13.64-56.12,26.22-60.47,27.61a16,16,0,0,1-19-22.67c.31-.6,31.35-59.9,45.34-94.43a16,16,0,0,1,29.66,12c-7.07,17.46-18,40.29-27.44,59.44a75.12,75.12,0,0,0,12.32-7.22l.32-.26a81.28,81.28,0,0,0,30.11-52.26l1.21-8.08a16,16,0,0,1,15.82-13.62h53.34a16,16,0,0,1,15,21.58,572.85,572.85,0,0,1-64.67,124.43,223.37,223.37,0,0,1-26,31.3L445.32,837A16,16,0,0,1,434,841.72Z"/><path d="M354.26,762a16,16,0,0,1-15.67-19.34l3.37-15.8a389.48,389.48,0,0,1,22.85-71.93,60.57,60.57,0,0,0,4.93-24,159.09,159.09,0,0,0-6.51-45L361.49,580a16,16,0,0,1,15.34-20.53h52a16,16,0,0,1,15.76,13.23L452,614.54a60.65,60.65,0,0,0,30.51,42.79,16,16,0,1,1-15.49,28,92.53,92.53,0,0,1-46.54-65.26l-5-28.59H397.62a190.87,190.87,0,0,1,4.12,39.41,92.37,92.37,0,0,1-7.52,36.61,357.29,357.29,0,0,0-21,66l-3.37,15.79A16,16,0,0,1,354.26,762Z"/><path d="M633.38,591.48H366.62a170.71,170.71,0,0,1-38.2-4.18c-26.73-6.16-42.82-16.68-51.61-24.42L273,559.52c-8.17-7.19-16.62-14.63-25-21.7l-80.24-67.51A16,16,0,0,1,178,442.06H822a16,16,0,0,1,10.3,28.25L752,537.83c-8.41,7.08-16.87,14.52-25,21.73l-3.78,3.32c-8.79,7.74-24.88,18.26-51.61,24.42A170.71,170.71,0,0,1,633.38,591.48ZM221.92,474.06l46.67,39.27c8.68,7.31,17.26,14.87,25.56,22.18l3.8,3.35c4.93,4.34,16.38,12.35,37.65,17.25a138.09,138.09,0,0,0,31,3.37H633.38a138.09,138.09,0,0,0,31-3.37c21.27-4.9,32.72-12.91,37.65-17.25l3.76-3.31c8.31-7.32,16.9-14.89,25.59-22.21l46.68-39.28Z"/><path d="M500,200.21a58.11,58.11,0,1,1,58.11-58.1A58.16,58.16,0,0,1,500,200.21ZM500,116a26.11,26.11,0,1,0,26.11,26.11A26.13,26.13,0,0,0,500,116Z"/></svg>
