<svg id="Layer_1" height="512" viewBox="0 0 64 64" width="512" xmlns="http://www.w3.org/2000/svg"><path d="m17.17 64h7.83c.55 0 1.05-.22 1.41-.59.37-.36.59-.86.59-1.41v-3h-6l-4.19.7c-1.04.17-1.81 1.08-1.81 2.13 0 .6.24 1.14.64 1.53.39.4.93.64 1.53.64z"/><path d="m44 64c.71 0 1.23-.37 1.61-.97l3.4-5.45c.56-.89.33-2.06-.52-2.68l-2.41-1.75-3.08 3.85-1.27 3.17c-.44 1.11-.18 2.38.67 3.23.38.38 1.05.6 1.6.6z"/><path d="m21 48v9h6v-9l3.11-2.77 5.89-5.23c1.5-.5 2.5-1.25 3.12-2.25.63-1 .88-2.25.88-3.75h-14v4l-3.26 4.56c-1.13 1.59-1.74 3.49-1.74 5.44z"/><path d="m44.518 51.901.051-.063-5.569-4.837-2.17-5.063-5.794 5.146 1.183 2.367c.51 1 1.33 1.82 2.33 2.33l6.736 4.161 3.232-4.041z"/><path d="m33.949 4.684.826 2.479 3.225.806v-2.969c0-1.38-.56-2.63-1.46-3.54-.91-.9-2.16-1.46-3.54-1.46-2.417 0-4.435 1.719-4.899 4h4.899c.431 0 .812.275.949.684z"/><path d="m37.899 10.006-4.141-1.035c-.332-.083-.598-.33-.706-.654l-.772-2.316h-4.279v3c0 2.76 2.24 5 5 5 2.416 0 4.433-1.716 4.899-3.994z"/><path d="m40 22 5 3 5-1c0-1.24-.34-2.42-.94-3.44-.61-1.02-1.49-1.88-2.57-2.48l-7.49-4.08h-6c-1.94 0-3.68.78-4.95 2.05s-2.05 3.01-2.05 4.95v11h14z"/><path d="m20.15 32.36c.29 0 .59-.05.88-.17l2.97-1.189v-5.891l-5.01 2.78c-1.11.62-1.54 2.01-.97 3.15.41.83 1.25 1.32 2.13 1.32z"/><path d="m50 26.04-4.608.922-.392.078v5.46c0 1.38 1.12 2.5 2.5 2.5.69 0 1.32-.28 1.77-.73s.73-1.08.73-1.77z"/></svg>