<svg id="_x30_2_Egg" viewBox="0 0 512 512" xmlns="http://www.w3.org/2000/svg"><g><path d="m152 24c-72 0-144 146.3-144 256 0 79.53 64.47 144 144 144s144-64.47 144-144c0-109.7-72-256-144-256z" fill="#f0f0f0"/><g><path d="m420.79 96.69c-69.55-18.63-176.96 104.05-205.35 210.01-20.58 76.82 25 155.78 101.82 176.36s155.78-25 176.36-101.82c28.39-105.96-3.29-265.91-72.84-284.55z" fill="#f0f0f0"/><circle cx="356.6" cy="336.24" fill="#ffe64e" r="80" transform="matrix(.707 -.707 .707 .707 -133.31 350.64)"/></g></g><g fill="#555"><path d="m501.72 204.38c-15.04-63.95-43.78-106.02-78.86-115.42s-81.01 12.66-126.01 60.53c-41.66 44.32-74.99 102.31-89.14 155.14-10.51 39.22-5.12 80.18 15.19 115.34 20.3 35.16 53.08 60.31 92.3 70.82 13.13 3.52 26.32 5.2 39.31 5.2 67.1 0 128.68-44.85 146.86-112.68 14.15-52.82 14.29-119.71.37-178.92zm-15.83 174.78c-16.26 60.69-71.35 100.82-131.4 100.82-11.62 0-23.43-1.5-35.17-4.65-35.09-9.4-64.42-31.91-82.58-63.37s-22.99-68.11-13.59-103.2c13.3-49.64 46-106.47 85.34-148.32 34.73-36.94 70.18-57.6 97.74-57.6 4.36 0 8.53.52 12.47 1.57 28.78 7.71 53.98 46.45 67.43 103.63 13.15 55.91 13.05 121.48-.25 171.12z"/><path d="m357.25 248c-48.52 0-88 39.48-88 88s39.48 88 88 88 88-39.48 88-88-39.48-88-88-88zm0 160c-39.7 0-72-32.3-72-72s32.3-72 72-72 72 32.3 72 72-32.3 72-72 72z"/><path d="m199.47 407.47c-15.19 5.66-31.16 8.53-47.47 8.53-74.99 0-136-61.01-136-136 0-51.39 16.88-114.75 44.05-165.35 27.79-51.75 62.16-82.65 91.95-82.65 37.98 0 82.76 50.43 111.43 125.5 1.58 4.13 6.2 6.19 10.33 4.62 4.13-1.58 6.2-6.2 4.62-10.33-14.42-37.77-33.07-70.43-53.92-94.47-23.44-27.03-48.5-41.31-72.46-41.31-36.32 0-74.97 33.2-106.05 91.08-28.77 53.58-45.95 118.22-45.95 172.91 0 83.81 68.19 152 152 152 18.23 0 36.08-3.21 53.06-9.54 4.14-1.54 6.25-6.15 4.7-10.29-1.54-4.14-6.15-6.24-10.29-4.7z"/></g></svg>