<svg height="512" viewBox="0 0 64 64" width="512" xmlns="http://www.w3.org/2000/svg"><g id="Back"><path d="m-104-692h524v1196h-524z" fill="#fff"/></g><g id="Filled_Expand" data-name="Filled Expand"><path d="m54.274 24.575a16.307 16.307 0 0 1 -5.084 17.725l-7.644 6.314-5.657-8.485z" fill="#adf"/><path d="m54.274 24.575-18.385 15.557 2.955 4.433a38.12 38.12 0 0 0 10.549-7.331 36.409 36.409 0 0 0 5.71-7.5 16.274 16.274 0 0 0 -.829-5.159z" fill="#8dd4fc"/><path d="m39.425 9.726a16.307 16.307 0 0 0 -17.725 5.084l-6.314 7.644 8.485 5.657z" fill="#adf"/><path d="m60 4s-19.714-.085-31.82 12.021c-7.263 7.263-10.136 17.259-11.273 24.1a1.989 1.989 0 0 1 -2.38 1.616 9.972 9.972 0 0 0 -9.113 2.709l-1.414 1.412 1.185 1.185a8.776 8.776 0 0 0 10.129 1.643 8.776 8.776 0 0 0 1.643 10.129l1.185 1.185 1.414-1.414a9.972 9.972 0 0 0 2.709-9.113 1.989 1.989 0 0 1 1.616-2.38c6.839-1.137 16.835-4.01 24.1-11.273 12.104-12.106 12.019-31.82 12.019-31.82z" fill="#c2e7ff"/><path d="m22.265 49.473a1.989 1.989 0 0 1 1.616-2.38c6.839-1.137 16.835-4.01 24.1-11.273 10.13-10.132 11.719-25.586 11.972-30.358-4.773.249-20.226 1.838-30.359 11.973-7.263 7.264-10.136 17.259-11.273 24.1a1.988 1.988 0 0 1 -2.38 1.616 9.972 9.972 0 0 0 -9.113 2.709l-1.4 1.4a8.763 8.763 0 0 0 9.882 1.432 8.776 8.776 0 0 0 1.643 10.129l1.189 1.179 1.414-1.414a9.972 9.972 0 0 0 2.709-9.113z" fill="#adf"/><path d="m56.665 21.679a56.816 56.816 0 0 0 3.335-17.679 56.816 56.816 0 0 0 -17.679 3.335 18 18 0 0 0 14.344 14.344z" fill="#d3eeff"/><path d="m56.664 21.679a58.02 58.02 0 0 0 3.289-16.217 57.629 57.629 0 0 0 -17.19 3.656 18 18 0 0 0 13.901 12.561z" fill="#c2e7ff"/><circle cx="52.223" cy="10.365" fill="#2d4969" r="2"/><path d="m61 4a1 1 0 0 0 -1-1 56.069 56.069 0 0 0 -22.42 5.23 17.216 17.216 0 0 0 -16.658 5.944l-6.314 7.643a1 1 0 0 0 .216 1.469l5.022 3.349a54.872 54.872 0 0 0 -3.93 13.319.973.973 0 0 1 -.412.65 1 1 0 0 1 -.777.152 10.958 10.958 0 0 0 -10.024 2.98l-1.41 1.414a1 1 0 0 0 0 1.414l1.185 1.186a9.768 9.768 0 0 0 9.173 2.6 9.762 9.762 0 0 0 2.6 9.172l1.185 1.185a1 1 0 0 0 1.414 0l1.414-1.414a10.961 10.961 0 0 0 2.982-10.024 1 1 0 0 1 .151-.778.976.976 0 0 1 .649-.412 54.891 54.891 0 0 0 13.32-3.929l3.348 5.022a1 1 0 0 0 .686.434 1.036 1.036 0 0 0 .146.011 1 1 0 0 0 .637-.229l7.644-6.315a17.215 17.215 0 0 0 5.942-16.659 56.083 56.083 0 0 0 5.231-22.414zm-5 16.5a17.08 17.08 0 0 1 -12.5-12.5 57.968 57.968 0 0 1 15.47-2.97 57.752 57.752 0 0 1 -2.97 15.47zm-39.141 1.736 5.609-6.789a15.222 15.222 0 0 1 12.032-5.547 35.762 35.762 0 0 0 -7.026 5.413 36.754 36.754 0 0 0 -6.755 9.5zm6.858 23.87a2.989 2.989 0 0 0 -2.43 3.572 8.969 8.969 0 0 1 -2.438 8.2l-.707.707-.477-.478a7.763 7.763 0 0 1 -1.457-8.974 1 1 0 0 0 -1.342-1.342 7.764 7.764 0 0 1 -8.974-1.456l-.478-.479.707-.707a8.966 8.966 0 0 1 8.2-2.437 2.988 2.988 0 0 0 2.315-.459 2.952 2.952 0 0 0 1.255-1.972c1.143-6.873 3.979-16.539 10.994-23.554a36.83 36.83 0 0 1 12.721-8.033 19.107 19.107 0 0 0 13.7 13.7 36.862 36.862 0 0 1 -8.039 12.719c-7.012 7.017-16.677 9.851-23.55 10.993zm24.836-4.574-6.79 5.609-2.572-3.859a36.732 36.732 0 0 0 9.495-6.755 35.72 35.72 0 0 0 5.414-7.027 15.22 15.22 0 0 1 -5.547 12.032z"/><path d="m49.33 28.68a1 1 0 0 0 .414-1.91 25.177 25.177 0 0 1 -12.513-12.512 1 1 0 0 0 -1.821.828 27.177 27.177 0 0 0 13.507 13.5.993.993 0 0 0 .413.094z"/><path d="m52.223 13.363a3 3 0 1 0 -2.121-.877 2.99 2.99 0 0 0 2.121.877zm-.707-3.706a1 1 0 1 1 0 1.415 1 1 0 0 1 0-1.415z"/></g></svg>