<svg id="Filled_Expand" height="512" viewBox="0 0 64 64" width="512" xmlns="http://www.w3.org/2000/svg" data-name="Filled Expand"><path d="m22 1h28v6h-28z" fill="#e6f4ff"/><path d="m44 19 6-12 6 12v42a2 2 0 0 1 -2 2h-12a2 2 0 0 0 2-2z" fill="#d2eaff"/><path d="m16 19h28a0 0 0 0 1 0 0v42a2 2 0 0 1 -2 2h-24a2 2 0 0 1 -2-2v-42a0 0 0 0 1 0 0z" fill="#e6f4ff"/><path d="m50 7h-28l-6 12h28z" fill="#f5fbff"/><path d="m44 61a2 2 0 0 1 -2 2h12a2 2 0 0 0 2-2v-5h-12z" fill="#5c73e5"/><path d="m16 30h28v16h-28z" fill="#b4dcff"/><path d="m16 56h28a0 0 0 0 1 0 0v5a2 2 0 0 1 -2 2h-24a2 2 0 0 1 -2-2v-5a0 0 0 0 1 0 0z" fill="#6e7ee4"/><path d="m19.5 42.75a.75.75 0 0 0 .75-.75v-5.585l1.382 2.01a.75.75 0 0 0 1.236 0l1.382-2.01v5.585a.75.75 0 0 0 1.5 0v-8a.75.75 0 0 0 -1.368-.425l-2.132 3.1-2.132-3.1a.75.75 0 0 0 -1.368.425v8a.75.75 0 0 0 .75.75z"/><path d="m31 42.75h3a.75.75 0 0 0 0-1.5h-2.25v-7.25a.75.75 0 0 0 -1.5 0v8a.75.75 0 0 0 .75.75z"/><path d="m28 42.75a.75.75 0 0 0 .75-.75v-8a.75.75 0 0 0 -1.5 0v8a.75.75 0 0 0 .75.75z"/><path d="m36.5 42.75a.75.75 0 0 0 .75-.75v-1.773l.583-.875 2.043 3.064a.75.75 0 0 0 1.248-.832l-2.389-3.584 2.389-3.584a.75.75 0 0 0 -1.248-.832l-2.626 3.939v-3.523a.75.75 0 0 0 -1.5 0v8a.75.75 0 0 0 .75.75z"/><path d="m56.671 18.665-5.921-11.842v-5.823a.75.75 0 0 0 -.75-.75h-28a.75.75 0 0 0 -.75.75v5.823l-5.921 11.842a.75.75 0 0 0 -.079.335v42a2.752 2.752 0 0 0 2.75 2.75h36a2.752 2.752 0 0 0 2.75-2.75v-42a.75.75 0 0 0 -.079-.335zm-33.921-16.915h26.5v4.5h-2.5v-2.25a.75.75 0 0 0 -1.5 0v2.25h-2.5v-2.25a.75.75 0 0 0 -1.5 0v2.25h-2.5v-2.25a.75.75 0 0 0 -1.5 0v2.25h-2.5v-2.25a.75.75 0 0 0 -1.5 0v2.25h-2.5v-2.25a.75.75 0 0 0 -1.5 0v2.25h-2.5v-2.25a.75.75 0 0 0 -1.5 0v2.25h-2.5zm20.5 59.25a1.25 1.25 0 0 1 -1.25 1.25h-24a1.25 1.25 0 0 1 -1.25-1.25v-4.25h26.5zm0-5.75h-26.5v-8.5h26.5zm0-10h-26.5v-14.5h26.5zm0-16h-26.5v-9.5h26.5zm-26.036-11 5.25-10.5h26.322l-5.25 10.5zm38.036 42.75a1.25 1.25 0 0 1 -1.25 1.25h-9.565a2.709 2.709 0 0 0 .315-1.25v-4.25h10.5zm0-5.75h-10.5v-36.073l5.25-10.5 5.25 10.5z"/><path d="m46.25 22a.75.75 0 0 0 .75.75h6a.75.75 0 0 0 0-1.5h-6a.75.75 0 0 0 -.75.75z"/><path d="m53 25.25h-6a.75.75 0 0 0 0 1.5h6a.75.75 0 0 0 0-1.5z"/><path d="m53 29.25h-6a.75.75 0 0 0 0 1.5h6a.75.75 0 0 0 0-1.5z"/><path d="m53 33.25h-6a.75.75 0 0 0 0 1.5h6a.75.75 0 0 0 0-1.5z"/></svg>