<?xml version="1.0" encoding="UTF-8" standalone="no"?>
<!-- Created with Inkscape (http://www.inkscape.org/) -->

<svg
   version="1.1"
   id="svg2118"
   xml:space="preserve"
   width="682.66669"
   height="682.66669"
   viewBox="0 0 682.66669 682.66669"
   xmlns="http://www.w3.org/2000/svg"
   xmlns:svg="http://www.w3.org/2000/svg"><defs
     id="defs2122"><clipPath
       clipPathUnits="userSpaceOnUse"
       id="clipPath2132"><path
         d="M 0,512 H 512 V 0 H 0 Z"
         id="path2130" /></clipPath></defs><g
     id="g2124"
     transform="matrix(1.3333333,0,0,-1.3333333,0,682.66667)"><g
       id="g2126"><g
         id="g2128"
         clip-path="url(#clipPath2132)"><g
           id="g2134"
           transform="translate(372.2139,210.8257)"><path
             d="m 0,0 v 96.911 c 0,9.679 -7.846,17.525 -17.524,17.525 h -197.379 c -9.679,0 -17.525,-7.846 -17.525,-17.525 v -280.212 c 0,-9.678 7.846,-17.525 17.525,-17.525 h 197.379 c 9.678,0 17.524,7.847 17.524,17.525 v 92.889"
             style="fill:#ffda8f;fill-opacity:1;fill-rule:nonzero;stroke:#000000;stroke-width:20;stroke-linecap:round;stroke-linejoin:round;stroke-miterlimit:10;stroke-dasharray:none;stroke-opacity:1"
             id="path2136" /></g><g
           id="g2138"
           transform="translate(372.2139,165.4365)"><path
             d="M 0,0 V 0"
             style="fill:none;stroke:#000000;stroke-width:20;stroke-linecap:round;stroke-linejoin:round;stroke-miterlimit:10;stroke-dasharray:none;stroke-opacity:1"
             id="path2140" /></g><g
           id="g2142"
           transform="translate(347.4756,325.2617)"><path
             d="m 0,0 h -182.951 v 46.767 c 0,10.693 8.668,19.361 19.361,19.361 H -19.361 C -8.668,66.128 0,57.46 0,46.767 Z"
             style="fill:#faf7f5;fill-opacity:1;fill-rule:nonzero;stroke:none"
             id="path2144" /></g><g
           id="g2146"
           transform="translate(347.4756,325.2617)"><path
             d="m 0,0 h -182.951 v 46.767 c 0,10.693 8.668,19.361 19.361,19.361 H -19.361 C -8.668,66.128 0,57.46 0,46.767 Z"
             style="fill:none;stroke:#000000;stroke-width:20;stroke-linecap:round;stroke-linejoin:round;stroke-miterlimit:10;stroke-dasharray:none;stroke-opacity:1"
             id="path2148" /></g><g
           id="g2150"
           transform="translate(303.9326,391.3901)"><path
             d="M 0,0 -26.55,110.61 H -69.315 L -95.865,0 Z"
             style="fill:#ffcd69;fill-opacity:1;fill-rule:nonzero;stroke:none"
             id="path2152" /></g><g
           id="g2154"
           transform="translate(303.9326,391.3901)"><path
             d="M 0,0 -26.55,110.61 H -69.315 L -95.865,0 Z"
             style="fill:none;stroke:#000000;stroke-width:20;stroke-linecap:round;stroke-linejoin:round;stroke-miterlimit:10;stroke-dasharray:none;stroke-opacity:1"
             id="path2156" /></g><g
           id="g2158"
           transform="translate(197.5908,352.293)"><path
             d="M 0,0 V -23.174"
             style="fill:none;stroke:#000000;stroke-width:20;stroke-linecap:round;stroke-linejoin:round;stroke-miterlimit:10;stroke-dasharray:none;stroke-opacity:1"
             id="path2160" /></g><g
           id="g2162"
           transform="translate(236.5303,352.293)"><path
             d="M 0,0 V -23.174"
             style="fill:none;stroke:#000000;stroke-width:20;stroke-linecap:round;stroke-linejoin:round;stroke-miterlimit:10;stroke-dasharray:none;stroke-opacity:1"
             id="path2164" /></g><g
           id="g2166"
           transform="translate(275.4697,352.293)"><path
             d="M 0,0 V -23.174"
             style="fill:none;stroke:#000000;stroke-width:20;stroke-linecap:round;stroke-linejoin:round;stroke-miterlimit:10;stroke-dasharray:none;stroke-opacity:1"
             id="path2168" /></g><g
           id="g2170"
           transform="translate(314.4092,352.293)"><path
             d="M 0,0 V -23.174"
             style="fill:none;stroke:#000000;stroke-width:20;stroke-linecap:round;stroke-linejoin:round;stroke-miterlimit:10;stroke-dasharray:none;stroke-opacity:1"
             id="path2172" /></g><g
           id="g2174"
           transform="translate(289.6934,231.54)"><path
             d="m 0,0 v 13.478 c 0,0 -6.738,13.477 -33.693,13.477 -26.955,0 -33.694,-13.477 -33.694,-13.477 V 0 c 0,-7.445 -6.032,-13.477 -13.477,-13.477 H -94.342 V -144.773 H 26.955 V -13.477 H 13.478 C 6.032,-13.477 0,-7.445 0,0"
             style="fill:#ffcd69;fill-opacity:1;fill-rule:nonzero;stroke:none"
             id="path2176" /></g><g
           id="g2178"
           transform="translate(289.6934,231.54)"><path
             d="m 0,0 v 13.478 c 0,0 -6.738,13.477 -33.693,13.477 -26.955,0 -33.694,-13.477 -33.694,-13.477 V 0 c 0,-7.445 -6.032,-13.477 -13.477,-13.477 H -94.342 V -144.773 H 26.955 V -13.477 H 13.478 C 6.032,-13.477 0,-7.445 0,0 Z"
             style="fill:none;stroke:#000000;stroke-width:20;stroke-linecap:round;stroke-linejoin:round;stroke-miterlimit:10;stroke-dasharray:none;stroke-opacity:1"
             id="path2180" /></g></g></g></g></svg>
