<svg id="Layer_1" enable-background="new 0 0 74 74" height="512" viewBox="0 0 74 74" width="512" xmlns="http://www.w3.org/2000/svg"><g><g><g><g><path d="m29.44 17.5c-.22 2.52-1.4 4.94-3.49 6.7-3.51-4.18-2.97-10.39 1.21-13.9 1.75 2.09 2.5 4.68 2.28 7.2z" fill="#e59145"/></g><g><path d="m25.95 24.7c-.01 0-.03 0-.04 0-.13-.01-.25-.07-.34-.18-1.78-2.12-2.63-4.81-2.39-7.56s1.54-5.25 3.66-7.04c.1-.09.23-.13.37-.12.13.01.25.08.34.18 1.78 2.12 2.63 4.81 2.39 7.56-.24 2.75-1.54 5.25-3.66 7.04-.1.08-.21.12-.33.12zm1.15-13.67c-1.69 1.58-2.73 3.7-2.93 6.02s.45 4.58 1.84 6.43c1.69-1.58 2.73-3.7 2.93-6.02s-.45-4.58-1.84-6.43z"/></g><g><path d="m27.16 10.8c-.01 0-.03 0-.04 0-.27-.02-.48-.27-.45-.54l.42-4.8c.01-.28.26-.48.53-.46s.48.27.45.54l-.42 4.8c-.02.27-.23.46-.49.46z"/></g></g><g><g><path d="m32.83 23.37c-1.76 1.82-4.2 2.96-6.93 3.01-.1-5.46 4.23-9.94 9.69-10.04.05 2.73-1 5.21-2.76 7.03z" fill="#e59145"/></g><g><path d="m25.91 26.88c-.27 0-.5-.22-.5-.49-.05-2.77.98-5.4 2.9-7.39s4.51-3.11 7.28-3.16c.25.01.5.22.51.49.05 2.77-.98 5.4-2.9 7.38-1.93 2-4.51 3.12-7.29 3.17zm9.18-10.01c-2.31.16-4.45 1.16-6.06 2.83s-2.53 3.84-2.62 6.16c2.31-.16 4.45-1.16 6.06-2.83 1.62-1.68 2.54-3.85 2.62-6.16z"/></g><g><path d="m35.6 16.85c-.13 0-.25-.05-.35-.14-.2-.19-.2-.51-.01-.71l3.35-3.47c.19-.2.51-.2.71-.01s.2.51.01.71l-3.35 3.47c-.1.09-.23.15-.36.15z"/></g></g><g><g><path d="m19.31 22.2c1.42 2.1 3.62 3.64 6.3 4.16 1.04-5.36-2.45-10.53-7.81-11.56-.52 2.68.09 5.3 1.51 7.4z" fill="#e59145"/></g><g><path d="m25.61 26.86c-.03 0-.06 0-.1-.01-2.72-.53-5.07-2.08-6.62-4.37-1.55-2.29-2.11-5.05-1.58-7.77.02-.13.1-.25.21-.32s.25-.1.37-.08c2.72.53 5.08 2.08 6.62 4.37s2.11 5.05 1.58 7.78c-.02.13-.1.24-.21.32-.07.05-.17.08-.27.08zm-7.4-11.46c-.32 2.29.21 4.59 1.52 6.52 1.3 1.93 3.24 3.28 5.48 3.84.32-2.29-.21-4.59-1.51-6.52s-3.24-3.28-5.49-3.84z"/></g><g><path d="m17.8 15.3c-.16 0-.32-.08-.41-.22l-2.7-3.99c-.15-.23-.09-.54.13-.69.23-.16.54-.09.69.13l2.7 3.99c.15.23.09.54-.13.69-.08.06-.18.09-.28.09z"/></g></g><g><g><path d="m32.12 31.62c-1.76 1.82-4.2 2.96-6.93 3.01-.1-5.46 4.23-9.94 9.69-10.04.05 2.73-1 5.21-2.76 7.03z" fill="#e59145"/></g><g><path d="m25.19 35.13c-.13 0-.25-.05-.35-.14s-.15-.22-.15-.35c-.1-5.71 4.47-10.45 10.18-10.55.14-.01.26.05.36.14s.15.22.15.35c.05 2.77-.98 5.4-2.9 7.39-1.92 1.98-4.51 3.11-7.29 3.16zm9.19-10.02c-4.75.34-8.51 4.23-8.68 8.99 2.31-.16 4.45-1.16 6.06-2.83 1.61-1.67 2.53-3.84 2.62-6.16z"/></g><g><path d="m34.88 25.09c-.13 0-.25-.05-.35-.14-.2-.19-.2-.51-.01-.71l3.35-3.47c.19-.2.51-.2.71-.01s.2.51.01.71l-3.35 3.47c-.1.1-.23.15-.36.15z"/></g></g><g><g><path d="m18.59 30.44c1.42 2.1 3.62 3.64 6.3 4.16 1.04-5.36-2.45-10.52-7.81-11.56-.51 2.68.1 5.3 1.51 7.4z" fill="#e59145"/></g><g><path d="m24.9 35.1c-.03 0-.06 0-.1-.01-2.72-.53-5.08-2.08-6.62-4.37-1.55-2.29-2.11-5.05-1.58-7.78.02-.13.1-.24.21-.32.11-.07.24-.1.38-.08 5.61 1.09 9.29 6.53 8.21 12.15-.02.13-.1.25-.21.32-.1.06-.19.09-.29.09zm-7.41-11.46c-.32 2.29.21 4.59 1.51 6.52 1.3 1.93 3.24 3.28 5.48 3.84.66-4.72-2.37-9.2-6.99-10.36z"/></g><g><path d="m17.09 23.54c-.16 0-.32-.08-.41-.22l-2.7-3.99c-.15-.23-.09-.54.13-.69.23-.16.54-.09.69.13l2.7 3.99c.15.23.09.54-.13.69-.09.06-.19.09-.28.09z"/></g></g><g><g><path d="m31.4 39.86c-1.76 1.82-4.2 2.96-6.93 3.01-.1-5.46 4.23-9.94 9.69-10.04.05 2.73-1 5.21-2.76 7.03z" fill="#e59145"/></g><g><path d="m24.47 43.37c-.27 0-.5-.22-.5-.49-.05-2.77.98-5.4 2.9-7.38 1.92-1.99 4.51-3.11 7.28-3.16.26 0 .5.22.51.49.05 2.77-.98 5.4-2.9 7.38-1.92 1.99-4.51 3.11-7.29 3.16.01 0 .01 0 0 0zm9.19-10.02c-2.31.16-4.45 1.16-6.06 2.83s-2.53 3.84-2.62 6.16c2.31-.16 4.45-1.16 6.06-2.83 1.62-1.67 2.54-3.84 2.62-6.16z"/></g><g><path d="m34.16 33.33c-.13 0-.25-.05-.35-.14-.2-.19-.2-.51-.01-.71l3.35-3.47c.19-.2.51-.2.71-.01s.2.51.01.71l-3.35 3.47c-.1.1-.23.15-.36.15z"/></g></g><g><g><path d="m17.88 38.68c1.42 2.1 3.62 3.64 6.3 4.16 1.04-5.36-2.45-10.52-7.81-11.56-.52 2.68.09 5.31 1.51 7.4z" fill="#e59145"/></g><g><path d="m24.18 43.34c-.03 0-.06 0-.1-.01-2.72-.53-5.07-2.08-6.62-4.37-1.55-2.29-2.11-5.05-1.58-7.77.02-.13.1-.25.21-.32s.24-.1.37-.08c2.72.53 5.08 2.08 6.62 4.37s2.11 5.05 1.58 7.78c-.04.24-.24.4-.48.4zm-5.89-4.94c1.3 1.93 3.24 3.28 5.48 3.84.32-2.29-.21-4.59-1.51-6.52s-3.24-3.28-5.48-3.84c-.32 2.3.21 4.6 1.51 6.52z"/></g><g><path d="m16.37 31.78c-.16 0-.32-.08-.41-.22l-2.7-3.99c-.15-.23-.09-.54.13-.69.23-.15.54-.09.69.13l2.7 3.99c.15.23.09.54-.13.69-.09.07-.18.09-.28.09z"/></g></g><g><g><path d="m30.68 48.1c-1.76 1.82-4.2 2.96-6.93 3.01-.1-5.46 4.23-9.94 9.69-10.04.05 2.73-1 5.21-2.76 7.03z" fill="#e59145"/></g><g><path d="m23.76 51.61c-.27 0-.5-.22-.5-.49-.05-2.77.98-5.4 2.9-7.39s4.51-3.11 7.28-3.16c.29.01.5.22.51.49.05 2.77-.98 5.4-2.9 7.38-1.93 2-4.51 3.12-7.29 3.17zm9.18-10.01c-2.31.16-4.45 1.16-6.06 2.83s-2.53 3.84-2.62 6.16c2.31-.16 4.45-1.16 6.06-2.83 1.62-1.68 2.54-3.85 2.62-6.16z"/></g><g><path d="m33.45 41.58c-.13 0-.25-.05-.35-.14-.2-.19-.2-.51-.01-.71l3.35-3.47c.19-.2.51-.2.71-.01s.2.51.01.71l-3.35 3.47c-.1.09-.23.15-.36.15z"/></g></g><g><g><path d="m17.16 46.93c1.42 2.1 3.62 3.64 6.3 4.16 1.04-5.36-2.45-10.52-7.81-11.56-.52 2.68.09 5.3 1.51 7.4z" fill="#e59145"/></g><g><path d="m23.46 51.59c-.03 0-.06 0-.1-.01-2.72-.53-5.07-2.08-6.62-4.37-1.55-2.29-2.11-5.05-1.58-7.77.05-.27.31-.45.59-.4 2.72.53 5.08 2.08 6.62 4.37s2.11 5.05 1.58 7.78c-.02.13-.1.24-.21.32-.08.05-.18.08-.28.08zm-7.4-11.46c-.32 2.29.21 4.59 1.51 6.52 1.3 1.93 3.24 3.28 5.48 3.84.32-2.29-.21-4.59-1.51-6.52s-3.23-3.28-5.48-3.84z"/></g><g><path d="m15.65 40.03c-.16 0-.32-.08-.41-.22l-2.7-3.99c-.15-.23-.09-.54.13-.69.23-.16.54-.09.69.13l2.7 3.99c.15.23.09.54-.13.69-.08.06-.18.09-.28.09z"/></g></g><g><g><path d="m29.97 56.35c-1.76 1.82-4.2 2.96-6.93 3.01-.1-5.46 4.23-9.94 9.69-10.04.05 2.73-1.01 5.21-2.76 7.03z" fill="#e59145"/></g><g><path d="m23.04 59.86c-.13 0-.25-.05-.35-.14s-.15-.22-.15-.35c-.1-5.71 4.47-10.45 10.18-10.55.13-.01.26.05.36.14s.15.22.15.35c.05 2.77-.98 5.4-2.9 7.38s-4.51 3.12-7.29 3.17zm9.18-10.02c-4.75.34-8.51 4.23-8.68 8.99 2.31-.16 4.45-1.16 6.06-2.83 1.62-1.67 2.54-3.84 2.62-6.16z"/></g><g><path d="m32.73 49.82c-.13 0-.25-.05-.35-.14-.2-.19-.2-.51-.01-.71l3.35-3.47c.19-.2.51-.2.71-.01s.2.51.01.71l-3.35 3.47c-.1.1-.23.15-.36.15z"/></g></g><g><g><path d="m16.44 55.17c1.42 2.1 3.62 3.64 6.3 4.16 1.04-5.36-2.45-10.52-7.81-11.56-.51 2.68.09 5.3 1.51 7.4z" fill="#e59145"/></g><g><path d="m22.75 59.83c-.03 0-.06 0-.1-.01-2.72-.53-5.08-2.08-6.62-4.37-1.55-2.29-2.11-5.05-1.58-7.77.02-.13.1-.25.21-.32s.25-.1.37-.08c2.72.53 5.08 2.08 6.62 4.37s2.11 5.05 1.58 7.77c-.04.24-.25.41-.48.41zm-7.41-11.46c-.32 2.29.21 4.59 1.51 6.52s3.24 3.28 5.48 3.84c.32-2.29-.21-4.59-1.52-6.52s-3.22-3.28-5.47-3.84z"/></g><g><path d="m14.94 48.27c-.16 0-.32-.08-.41-.22l-2.7-3.99c-.15-.23-.09-.54.13-.69.23-.15.54-.09.69.13l2.7 3.99c.15.23.09.54-.13.69-.09.06-.19.09-.28.09z"/></g></g><g><path d="m22.1 69c-.01 0-.03 0-.04 0-.27-.02-.48-.27-.45-.54l3.85-44.3c.02-.27.28-.47.54-.45.27.02.48.27.45.54l-3.85 44.3c-.03.25-.25.45-.5.45z"/></g></g><g><g><g><path d="m51.19 25.98c-1.31 2.17-3.44 3.82-6.09 4.47-1.31-5.3 1.92-10.63 7.22-11.94.66 2.65.18 5.3-1.13 7.47z" fill="#fa5"/></g><g><path d="m45.11 30.95c-.09 0-.18-.02-.26-.07-.11-.07-.19-.18-.23-.31-1.37-5.55 2.04-11.18 7.58-12.54.27-.07.54.1.6.37.66 2.69.24 5.48-1.19 7.85s-3.7 4.03-6.39 4.7c-.03-.01-.07 0-.11 0zm6.84-11.82c-4.56 1.39-7.35 6.01-6.47 10.69 2.22-.67 4.08-2.12 5.28-4.11s1.62-4.3 1.19-6.58z"/></g><g><path d="m52.32 19.01c-.09 0-.18-.02-.26-.07-.24-.14-.31-.45-.17-.69l2.49-4.12c.14-.24.45-.31.69-.17s.31.45.17.69l-2.49 4.12c-.09.15-.26.24-.43.24z"/></g></g><g><g><path d="m51.65 32.75c-2.38.86-5.07.8-7.54-.36 2.32-4.94 8.19-7.05 13.12-4.73-1.16 2.47-3.2 4.23-5.58 5.09z" fill="#fa5"/></g><g><path d="m48.31 33.83c-1.51 0-3.01-.33-4.41-.99-.25-.12-.36-.42-.24-.67 1.18-2.51 3.26-4.41 5.86-5.35s5.42-.8 7.93.38c.12.06.21.16.26.28.04.12.04.26-.02.38-1.18 2.51-3.26 4.41-5.86 5.35-1.16.42-2.34.62-3.52.62zm-3.52-1.69c2.14.87 4.5.92 6.69.13 2.19-.79 3.97-2.33 5.07-4.37-2.15-.87-4.5-.92-6.69-.13s-3.98 2.33-5.07 4.37z"/></g><g><path d="m57.23 28.16c-.2 0-.4-.13-.47-.33-.09-.26.04-.55.3-.64l4.53-1.63c.26-.09.55.04.64.3s-.04.55-.3.64l-4.53 1.63c-.06.02-.11.03-.17.03z"/></g></g><g><g><path d="m40.03 25.72c.35 2.51 1.65 4.87 3.82 6.51 3.3-4.35 2.44-10.52-1.91-13.82-1.64 2.18-2.25 4.8-1.91 7.31z" fill="#fa5"/></g><g><path d="m43.85 32.74c-.11 0-.21-.04-.3-.1-2.21-1.67-3.64-4.11-4.01-6.84-.38-2.74.34-5.47 2.01-7.68.17-.22.48-.26.7-.1 4.56 3.45 5.46 9.96 2 14.52-.08.11-.2.18-.33.19-.02 0-.04.01-.07.01zm-3.32-7.09c.32 2.3 1.46 4.37 3.23 5.86 2.67-3.95 1.93-9.3-1.71-12.38-1.3 1.92-1.84 4.22-1.52 6.52z"/></g><g><path d="m41.95 18.92c-.25 0-.46-.18-.49-.43l-.66-4.77c-.04-.27.15-.53.43-.56.28-.04.53.15.56.43l.66 4.77c.04.27-.15.53-.43.56-.03-.01-.05 0-.07 0z"/></g></g><g><g><path d="m47.37 39.83c-2.38.86-5.07.8-7.54-.36 2.32-4.94 8.19-7.05 13.12-4.73-1.16 2.47-3.2 4.23-5.58 5.09z" fill="#fa5"/></g><g><path d="m44.02 40.92c-1.51 0-3.01-.33-4.41-.99-.25-.12-.36-.42-.24-.67 1.18-2.51 3.26-4.41 5.86-5.35s5.42-.8 7.93.38c.12.06.21.16.26.28.04.12.04.26-.02.38-1.18 2.51-3.26 4.41-5.86 5.35-1.15.41-2.33.62-3.52.62zm-3.51-1.7c2.14.87 4.5.92 6.69.13 2.19-.79 3.97-2.33 5.07-4.37-2.15-.87-4.5-.92-6.69-.13-2.2.79-3.98 2.33-5.07 4.37z"/></g><g><path d="m52.95 35.24c-.2 0-.4-.13-.47-.33-.09-.26.04-.55.3-.64l4.53-1.63c.26-.1.55.04.64.3s-.04.55-.3.64l-4.53 1.63c-.06.02-.12.03-.17.03z"/></g></g><g><g><path d="m35.75 32.8c.35 2.51 1.65 4.87 3.82 6.51 3.3-4.35 2.44-10.52-1.91-13.82-1.64 2.18-2.26 4.81-1.91 7.31z" fill="#fa5"/></g><g><path d="m39.57 39.82c-.11 0-.21-.04-.3-.1-2.21-1.67-3.64-4.11-4.01-6.84-.38-2.74.34-5.47 2.01-7.68.17-.22.48-.26.7-.1 4.56 3.45 5.46 9.96 2 14.52-.08.11-.2.18-.33.19-.02.01-.05.01-.07.01zm-3.32-7.09c.32 2.3 1.46 4.37 3.23 5.86 2.67-3.95 1.93-9.3-1.71-12.38-1.3 1.92-1.84 4.22-1.52 6.52z"/></g><g><path d="m37.66 26c-.25 0-.46-.18-.49-.43l-.66-4.77c-.04-.27.15-.53.43-.56.27-.04.53.15.56.43l.66 4.77c.04.27-.15.53-.43.56-.02 0-.04 0-.07 0z"/></g></g><g><g><path d="m43.09 46.91c-2.38.86-5.07.8-7.54-.36 2.32-4.94 8.19-7.05 13.12-4.73-1.16 2.47-3.2 4.23-5.58 5.09z" fill="#fa5"/></g><g><path d="m39.74 48c-1.51 0-3.01-.33-4.41-.99-.25-.12-.36-.42-.24-.67 1.18-2.51 3.26-4.41 5.86-5.35s5.42-.8 7.93.38c.12.06.21.16.26.28.04.12.04.26-.02.38-1.18 2.51-3.26 4.41-5.86 5.35-1.15.41-2.34.62-3.52.62zm-3.51-1.7c2.15.87 4.5.92 6.69.13 2.19-.79 3.97-2.33 5.07-4.37-2.15-.87-4.5-.92-6.69-.13-2.2.79-3.98 2.33-5.07 4.37z"/></g><g><path d="m48.67 42.32c-.2 0-.4-.13-.47-.33-.09-.26.04-.55.3-.64l4.53-1.63c.26-.1.55.04.64.3s-.04.55-.3.64l-4.53 1.63c-.06.02-.12.03-.17.03z"/></g></g><g><g><path d="m31.47 39.88c.35 2.51 1.65 4.87 3.82 6.51 3.3-4.35 2.44-10.52-1.91-13.82-1.65 2.18-2.26 4.81-1.91 7.31z" fill="#fa5"/></g><g><path d="m35.29 46.9c-.11 0-.21-.04-.3-.1-2.21-1.67-3.64-4.1-4.01-6.84-.38-2.74.34-5.47 2.01-7.68.17-.22.48-.26.7-.1 4.56 3.45 5.46 9.96 2 14.52-.08.11-.2.18-.33.19-.02.01-.05.01-.07.01zm-3.33-7.08c.32 2.3 1.46 4.37 3.23 5.86 2.67-3.95 1.93-9.3-1.71-12.38-1.3 1.92-1.83 4.21-1.52 6.52z"/></g><g><path d="m33.38 33.08c-.25 0-.46-.18-.49-.43l-.66-4.77c-.04-.27.15-.53.43-.56.27-.04.53.15.56.43l.66 4.77c.04.27-.15.53-.43.56-.02 0-.05 0-.07 0z"/></g></g><g><g><path d="m38.8 53.99c-2.38.86-5.07.8-7.54-.36 2.32-4.94 8.19-7.05 13.12-4.73-1.16 2.47-3.2 4.23-5.58 5.09z" fill="#fa5"/></g><g><path d="m35.46 55.08c-1.51 0-3.01-.33-4.41-.99-.25-.12-.36-.42-.24-.67 1.18-2.51 3.26-4.41 5.86-5.35s5.42-.8 7.93.38c.12.06.21.16.26.28.04.12.04.26-.02.38-1.18 2.51-3.26 4.41-5.86 5.35-1.15.41-2.34.62-3.52.62zm-3.52-1.7c2.14.87 4.5.92 6.69.13 2.19-.79 3.97-2.33 5.07-4.37-2.15-.87-4.5-.92-6.69-.13s-3.97 2.33-5.07 4.37z"/></g><g><path d="m44.38 49.4c-.2 0-.4-.13-.47-.33-.09-.26.04-.55.3-.64l4.53-1.63c.26-.1.55.04.64.3s-.04.55-.3.64l-4.53 1.63c-.05.02-.11.03-.17.03z"/></g></g><g><g><path d="m27.19 46.96c.35 2.51 1.65 4.87 3.82 6.51 3.3-4.35 2.44-10.52-1.91-13.82-1.65 2.18-2.26 4.81-1.91 7.31z" fill="#fa5"/></g><g><path d="m31.01 53.98c-.11 0-.21-.04-.3-.1-2.21-1.67-3.64-4.1-4.01-6.84-.38-2.74.34-5.47 2.01-7.68.08-.11.2-.18.33-.19.13-.02.26.02.37.1 4.56 3.45 5.46 9.96 2 14.52-.08.11-.2.18-.33.19-.03 0-.05 0-.07 0zm-3.33-7.08c.32 2.3 1.46 4.37 3.23 5.86 2.67-3.95 1.93-9.3-1.71-12.38-1.3 1.92-1.84 4.21-1.52 6.52z"/></g><g><path d="m29.1 40.16c-.25 0-.46-.18-.49-.43l-.66-4.77c-.04-.27.15-.53.43-.56.27-.04.53.15.56.43l.66 4.77c.04.27-.15.53-.43.56-.02 0-.05 0-.07 0z"/></g></g><g><g><path d="m34.52 61.07c-2.38.86-5.07.8-7.54-.36 2.32-4.94 8.19-7.05 13.12-4.73-1.16 2.47-3.2 4.23-5.58 5.09z" fill="#fa5"/></g><g><path d="m31.18 62.16c-1.51 0-3.01-.33-4.41-.99-.25-.12-.36-.42-.24-.67 2.43-5.17 8.62-7.4 13.79-4.97.12.06.21.16.26.28.04.12.04.26-.02.38-1.18 2.51-3.26 4.41-5.86 5.35-1.15.41-2.34.62-3.52.62zm-3.52-1.7c2.15.87 4.5.92 6.69.13 2.19-.79 3.97-2.33 5.07-4.37-4.41-1.78-9.5.05-11.76 4.24z"/></g><g><path d="m40.1 56.48c-.2 0-.4-.13-.47-.33-.09-.26.04-.55.3-.64l4.53-1.63c.26-.1.55.04.64.3s-.04.55-.3.64l-4.53 1.63c-.05.02-.11.03-.17.03z"/></g></g><g><g><path d="m22.91 54.04c.35 2.51 1.65 4.87 3.82 6.51 3.3-4.35 2.44-10.52-1.91-13.82-1.65 2.18-2.26 4.81-1.91 7.31z" fill="#fa5"/></g><g><path d="m26.73 61.06c-.1 0-.21-.03-.3-.1-2.21-1.67-3.64-4.1-4.01-6.84-.38-2.74.34-5.47 2.01-7.68.17-.22.48-.26.7-.1 4.56 3.45 5.46 9.96 2 14.52-.1.13-.25.2-.4.2zm-3.33-7.08c.32 2.31 1.46 4.37 3.23 5.86 2.67-3.95 1.93-9.3-1.71-12.38-1.3 1.92-1.84 4.21-1.52 6.52z"/></g><g><path d="m24.82 47.24c-.25 0-.46-.18-.49-.43l-.66-4.77c-.04-.27.15-.53.43-.56.27-.04.53.15.56.43l.66 4.77c.04.27-.15.53-.43.56-.03 0-.05 0-.07 0z"/></g></g><g><path d="m22.1 69c-.09 0-.18-.02-.26-.07-.24-.14-.31-.45-.17-.69l23.01-38.05c.14-.24.45-.31.69-.17s.31.45.17.69l-23.02 38.05c-.09.15-.25.24-.42.24z"/></g></g></g></svg>